<mxfile host="Electron" agent="Mozilla/5.0 (X11; Linux x86_64) AppleWebKit/537.36 (KHTML, like Gecko) draw.io/26.0.9 Chrome/128.0.6613.186 Electron/32.2.5 Safari/537.36" version="26.0.9">
  <diagram name="Page-1" id="BC59hc5BkVTK5PxaZQ-D">
    <mxGraphModel dx="1180" dy="863" grid="1" gridSize="10" guides="1" tooltips="1" connect="1" arrows="1" fold="1" page="1" pageScale="1" pageWidth="850" pageHeight="1100" math="0" shadow="0">
      <root>
        <mxCell id="0" />
        <mxCell id="1" parent="0" />
        <mxCell id="Bj4x6tohi45kmD-jGeYT-1" value="" style="rounded=0;whiteSpace=wrap;html=1;" vertex="1" parent="1">
          <mxGeometry x="240" y="410" width="440" height="190" as="geometry" />
        </mxCell>
        <mxCell id="Bj4x6tohi45kmD-jGeYT-2" value="" style="rounded=0;whiteSpace=wrap;html=1;" vertex="1" parent="1">
          <mxGeometry x="250" y="560" width="420" height="30" as="geometry" />
        </mxCell>
        <mxCell id="Bj4x6tohi45kmD-jGeYT-26" style="edgeStyle=orthogonalEdgeStyle;rounded=0;orthogonalLoop=1;jettySize=auto;html=1;fillColor=#f8cecc;strokeColor=#b85450;" edge="1" parent="1" source="Bj4x6tohi45kmD-jGeYT-5" target="Bj4x6tohi45kmD-jGeYT-23">
          <mxGeometry relative="1" as="geometry">
            <mxPoint x="150" y="470" as="targetPoint" />
            <Array as="points">
              <mxPoint x="170" y="575" />
              <mxPoint x="170" y="485" />
            </Array>
          </mxGeometry>
        </mxCell>
        <mxCell id="Bj4x6tohi45kmD-jGeYT-5" value="Search query" style="html=1;shadow=0;dashed=0;shape=mxgraph.bootstrap.rrect;rSize=5;html=1;whiteSpace=wrap;align=left;spacingLeft=5;spacing=0;fontSize=10;verticalAlign=middle;fillColor=#f8cecc;strokeColor=#b85450;" vertex="1" parent="1">
          <mxGeometry x="260" y="567.5" width="130" height="15" as="geometry" />
        </mxCell>
        <mxCell id="Bj4x6tohi45kmD-jGeYT-15" value="Query 1" style="html=1;shadow=0;dashed=0;shape=mxgraph.bootstrap.rrect;rSize=5;html=1;whiteSpace=wrap;align=left;spacingLeft=5;spacing=0;fontSize=10;verticalAlign=middle;fillColor=#d5e8d4;strokeColor=#82b366;" vertex="1" parent="1">
          <mxGeometry x="400" y="567.5" width="100" height="15" as="geometry" />
        </mxCell>
        <mxCell id="Bj4x6tohi45kmD-jGeYT-16" value="Query n" style="html=1;shadow=0;dashed=0;shape=mxgraph.bootstrap.rrect;rSize=5;html=1;whiteSpace=wrap;align=left;spacingLeft=5;spacing=0;fontSize=10;verticalAlign=middle;fillColor=#d5e8d4;strokeColor=#82b366;" vertex="1" parent="1">
          <mxGeometry x="510" y="567.5" width="100" height="15" as="geometry" />
        </mxCell>
        <mxCell id="Bj4x6tohi45kmD-jGeYT-17" value="" style="rounded=0;whiteSpace=wrap;html=1;align=left;verticalAlign=top;" vertex="1" parent="1">
          <mxGeometry x="250" y="420" width="420" height="130" as="geometry" />
        </mxCell>
        <mxCell id="Bj4x6tohi45kmD-jGeYT-19" value="Item 1" style="rounded=0;whiteSpace=wrap;html=1;align=left;spacingLeft=2;" vertex="1" parent="1">
          <mxGeometry x="260" y="430" width="400" height="20" as="geometry" />
        </mxCell>
        <mxCell id="Bj4x6tohi45kmD-jGeYT-28" style="edgeStyle=orthogonalEdgeStyle;rounded=0;orthogonalLoop=1;jettySize=auto;html=1;exitX=1;exitY=0.5;exitDx=0;exitDy=0;fillColor=#d5e8d4;strokeColor=#82b366;" edge="1" parent="1" source="Bj4x6tohi45kmD-jGeYT-20">
          <mxGeometry relative="1" as="geometry">
            <mxPoint x="505" y="630" as="targetPoint" />
            <mxPoint x="665" y="470" as="sourcePoint" />
            <Array as="points">
              <mxPoint x="715" y="470" />
              <mxPoint x="715" y="660" />
              <mxPoint x="505" y="660" />
            </Array>
          </mxGeometry>
        </mxCell>
        <mxCell id="Bj4x6tohi45kmD-jGeYT-20" value="Item 2 (selected)" style="rounded=0;whiteSpace=wrap;html=1;align=left;spacingLeft=2;fillColor=#d5e8d4;strokeColor=#82b366;" vertex="1" parent="1">
          <mxGeometry x="260" y="460" width="400" height="20" as="geometry" />
        </mxCell>
        <mxCell id="Bj4x6tohi45kmD-jGeYT-21" value="..." style="rounded=0;whiteSpace=wrap;html=1;align=left;spacingLeft=2;" vertex="1" parent="1">
          <mxGeometry x="260" y="490" width="400" height="20" as="geometry" />
        </mxCell>
        <mxCell id="Bj4x6tohi45kmD-jGeYT-22" value="Item n" style="rounded=0;whiteSpace=wrap;html=1;align=left;spacingLeft=2;" vertex="1" parent="1">
          <mxGeometry x="260" y="520" width="400" height="20" as="geometry" />
        </mxCell>
        <mxCell id="Bj4x6tohi45kmD-jGeYT-23" value="" style="shape=curlyBracket;whiteSpace=wrap;html=1;rounded=1;labelPosition=left;verticalLabelPosition=middle;align=right;verticalAlign=middle;fillColor=#f8cecc;strokeColor=#b85450;" vertex="1" parent="1">
          <mxGeometry x="190" y="425" width="70" height="120" as="geometry" />
        </mxCell>
        <mxCell id="Bj4x6tohi45kmD-jGeYT-27" value="" style="shape=curlyBracket;whiteSpace=wrap;html=1;rounded=1;labelPosition=left;verticalLabelPosition=middle;align=right;verticalAlign=middle;fillColor=#d5e8d4;strokeColor=#82b366;rotation=-90;" vertex="1" parent="1">
          <mxGeometry x="485" y="500" width="40" height="210" as="geometry" />
        </mxCell>
        <mxCell id="Bj4x6tohi45kmD-jGeYT-29" value="1" style="ellipse;whiteSpace=wrap;html=1;aspect=fixed;rotation=0;gradientColor=#223548;strokeColor=none;gradientDirection=east;fillColor=#5b738b;rounded=0;pointerEvents=0;fontFamily=Helvetica;fontSize=12;fontColor=#FFFFFF;spacingTop=4;spacingBottom=4;spacingLeft=4;spacingRight=4;points=[];fontStyle=1" vertex="1" parent="1">
          <mxGeometry x="160" y="580" width="20" height="20" as="geometry" />
        </mxCell>
        <mxCell id="Bj4x6tohi45kmD-jGeYT-32" value="2" style="ellipse;whiteSpace=wrap;html=1;aspect=fixed;rotation=0;gradientColor=#223548;strokeColor=none;gradientDirection=east;fillColor=#5b738b;rounded=0;pointerEvents=0;fontFamily=Helvetica;fontSize=12;fontColor=#FFFFFF;spacingTop=4;spacingBottom=4;spacingLeft=4;spacingRight=4;points=[];fontStyle=1" vertex="1" parent="1">
          <mxGeometry x="620" y="670" width="20" height="20" as="geometry" />
        </mxCell>
        <mxCell id="Bj4x6tohi45kmD-jGeYT-33" value="Text" style="text;html=1;align=center;verticalAlign=middle;whiteSpace=wrap;rounded=0;" vertex="1" parent="1">
          <mxGeometry x="340" y="520" width="60" height="30" as="geometry" />
        </mxCell>
        <mxCell id="Bj4x6tohi45kmD-jGeYT-34" value="Items get filtered for search query" style="text;html=1;align=center;verticalAlign=middle;resizable=0;points=[];autosize=1;strokeColor=none;fillColor=none;" vertex="1" parent="1">
          <mxGeometry x="70" y="608" width="200" height="30" as="geometry" />
        </mxCell>
        <mxCell id="Bj4x6tohi45kmD-jGeYT-35" value="Depending of selected item, additional queries appear&lt;div&gt;in the search box, each named differently. The input&amp;nbsp;&lt;/div&gt;&lt;div&gt;gets passed to the selected item upon execution.&lt;/div&gt;" style="text;html=1;align=left;verticalAlign=middle;resizable=0;points=[];autosize=1;strokeColor=none;fillColor=none;" vertex="1" parent="1">
          <mxGeometry x="485" y="700" width="310" height="60" as="geometry" />
        </mxCell>
      </root>
    </mxGraphModel>
  </diagram>
</mxfile>
